<svg xmlns="http://www.w3.org/2000/svg" viewBox="0 0 600 340" width="600" height="340">
  <defs>
    <linearGradient id="sky2" x1="0%" y1="0%" x2="0%" y2="100%">
      <stop offset="0%" style="stop-color:#4a90c4;stop-opacity:1"/>
      <stop offset="100%" style="stop-color:#b8d9f0;stop-opacity:1"/>
    </linearGradient>
    <linearGradient id="tower-grad" x1="0%" y1="0%" x2="100%" y2="100%">
      <stop offset="0%" style="stop-color:#0f3d6b;stop-opacity:1"/>
      <stop offset="100%" style="stop-color:#07294d;stop-opacity:1"/>
    </linearGradient>
    <linearGradient id="glass-grad" x1="0%" y1="0%" x2="0%" y2="100%">
      <stop offset="0%" style="stop-color:#5aace0;stop-opacity:0.9"/>
      <stop offset="100%" style="stop-color:#3a88c8;stop-opacity:0.9"/>
    </linearGradient>
    <linearGradient id="wing-grad" x1="0%" y1="0%" x2="100%" y2="100%">
      <stop offset="0%" style="stop-color:#1a4e7c;stop-opacity:1"/>
      <stop offset="100%" style="stop-color:#0d3358;stop-opacity:1"/>
    </linearGradient>
    <linearGradient id="lawn2" x1="0%" y1="0%" x2="0%" y2="100%">
      <stop offset="0%" style="stop-color:#4a8f3e;stop-opacity:1"/>
      <stop offset="100%" style="stop-color:#3a7030;stop-opacity:1"/>
    </linearGradient>
  </defs>

  <!-- Sky -->
  <rect width="600" height="340" fill="url(#sky2)"/>

  <!-- Clouds -->
  <ellipse cx="80" cy="50" rx="50" ry="17" fill="white" opacity="0.7"/>
  <ellipse cx="115" cy="43" rx="35" ry="13" fill="white" opacity="0.7"/>
  <ellipse cx="500" cy="60" rx="55" ry="18" fill="white" opacity="0.65"/>
  <ellipse cx="540" cy="52" rx="38" ry="14" fill="white" opacity="0.65"/>

  <!-- Ground -->
  <rect x="0" y="268" width="600" height="72" fill="url(#lawn2)"/>

  <!-- Sidewalk / plaza -->
  <rect x="0" y="260" width="600" height="12" fill="#b8a888"/>
  <rect x="200" y="260" width="200" height="12" fill="#ccc0a0"/>

  <!-- Left wing building -->
  <rect x="30" y="158" width="150" height="115" fill="url(#wing-grad)"/>
  <!-- Left wing glass facade -->
  <rect x="30" y="158" width="150" height="115" fill="url(#glass-grad)" opacity="0.2"/>

  <!-- Right wing building -->
  <rect x="420" y="158" width="150" height="115" fill="url(#wing-grad)"/>
  <rect x="420" y="158" width="150" height="115" fill="url(#glass-grad)" opacity="0.2"/>

  <!-- Main tower -->
  <rect x="170" y="55" width="260" height="215" fill="url(#tower-grad)"/>

  <!-- Glass curtain wall panels on tower -->
  <rect x="178" y="63" width="244" height="200" fill="url(#glass-grad)" opacity="0.25"/>

  <!-- Horizontal floor dividers on tower -->
  <line x1="170" y1="98" x2="430" y2="98" stroke="#ffc600" stroke-width="1.5" opacity="0.6"/>
  <line x1="170" y1="133" x2="430" y2="133" stroke="#ffc600" stroke-width="1.5" opacity="0.6"/>
  <line x1="170" y1="168" x2="430" y2="168" stroke="#ffc600" stroke-width="1.5" opacity="0.6"/>
  <line x1="170" y1="203" x2="430" y2="203" stroke="#ffc600" stroke-width="1.5" opacity="0.6"/>
  <line x1="170" y1="238" x2="430" y2="238" stroke="#ffc600" stroke-width="1.5" opacity="0.6"/>

  <!-- Vertical panel dividers on tower -->
  <line x1="235" y1="55" x2="235" y2="270" stroke="#1a5a8a" stroke-width="2" opacity="0.5"/>
  <line x1="300" y1="55" x2="300" y2="270" stroke="#1a5a8a" stroke-width="2" opacity="0.5"/>
  <line x1="365" y1="55" x2="365" y2="270" stroke="#1a5a8a" stroke-width="2" opacity="0.5"/>

  <!-- Tower windows - grid pattern -->
  <!-- Floor 1 (top) -->
  <rect x="183" y="65" width="44" height="26" fill="#7ec4e8" opacity="0.85"/>
  <rect x="237" y="65" width="55" height="26" fill="#ffc600" opacity="0.8"/>
  <rect x="302" y="65" width="55" height="26" fill="#7ec4e8" opacity="0.85"/>
  <rect x="367" y="65" width="55" height="26" fill="#7ec4e8" opacity="0.85"/>

  <!-- Floor 2 -->
  <rect x="183" y="101" width="44" height="24" fill="#7ec4e8" opacity="0.85"/>
  <rect x="237" y="101" width="55" height="24" fill="#7ec4e8" opacity="0.85"/>
  <rect x="302" y="101" width="55" height="24" fill="#ffc600" opacity="0.8"/>
  <rect x="367" y="101" width="55" height="24" fill="#7ec4e8" opacity="0.85"/>

  <!-- Floor 3 -->
  <rect x="183" y="136" width="44" height="24" fill="#ffc600" opacity="0.8"/>
  <rect x="237" y="136" width="55" height="24" fill="#7ec4e8" opacity="0.85"/>
  <rect x="302" y="136" width="55" height="24" fill="#7ec4e8" opacity="0.85"/>
  <rect x="367" y="136" width="55" height="24" fill="#ffc600" opacity="0.8"/>

  <!-- Floor 4 -->
  <rect x="183" y="171" width="44" height="24" fill="#7ec4e8" opacity="0.85"/>
  <rect x="237" y="171" width="55" height="24" fill="#ffc600" opacity="0.8"/>
  <rect x="302" y="171" width="55" height="24" fill="#7ec4e8" opacity="0.85"/>
  <rect x="367" y="171" width="55" height="24" fill="#7ec4e8" opacity="0.85"/>

  <!-- Floor 5 -->
  <rect x="183" y="206" width="44" height="24" fill="#7ec4e8" opacity="0.85"/>
  <rect x="237" y="206" width="55" height="24" fill="#7ec4e8" opacity="0.85"/>
  <rect x="302" y="206" width="55" height="24" fill="#7ec4e8" opacity="0.85"/>
  <rect x="367" y="206" width="55" height="24" fill="#ffc600" opacity="0.8"/>

  <!-- Floor 6 (bottom) -->
  <rect x="183" y="241" width="44" height="22" fill="#7ec4e8" opacity="0.8"/>
  <rect x="237" y="241" width="55" height="22" fill="#7ec4e8" opacity="0.8"/>
  <rect x="302" y="241" width="55" height="22" fill="#ffc600" opacity="0.75"/>
  <rect x="367" y="241" width="55" height="22" fill="#7ec4e8" opacity="0.8"/>

  <!-- CCI gold accent top stripe -->
  <rect x="170" y="50" width="260" height="8" fill="#ffc600"/>

  <!-- CCI Label on building -->
  <text x="300" y="48" text-anchor="middle" fill="#07294d" font-size="13" font-weight="bold" font-family="Arial, sans-serif">CCI</text>

  <!-- Left wing windows -->
  <rect x="45" y="172" width="28" height="20" fill="#7ec4e8" opacity="0.8"/>
  <rect x="85" y="172" width="28" height="20" fill="#ffc600" opacity="0.75"/>
  <rect x="125" y="172" width="28" height="20" fill="#7ec4e8" opacity="0.8"/>
  <rect x="45" y="204" width="28" height="20" fill="#7ec4e8" opacity="0.8"/>
  <rect x="85" y="204" width="28" height="20" fill="#7ec4e8" opacity="0.8"/>
  <rect x="125" y="204" width="28" height="20" fill="#ffc600" opacity="0.75"/>
  <rect x="45" y="236" width="28" height="20" fill="#ffc600" opacity="0.75"/>
  <rect x="85" y="236" width="28" height="20" fill="#7ec4e8" opacity="0.8"/>
  <rect x="125" y="236" width="28" height="20" fill="#7ec4e8" opacity="0.8"/>
  <!-- Left wing horizontal dividers -->
  <line x1="30" y1="200" x2="180" y2="200" stroke="#ffc600" stroke-width="1" opacity="0.4"/>
  <line x1="30" y1="232" x2="180" y2="232" stroke="#ffc600" stroke-width="1" opacity="0.4"/>

  <!-- Right wing windows -->
  <rect x="430" y="172" width="28" height="20" fill="#7ec4e8" opacity="0.8"/>
  <rect x="470" y="172" width="28" height="20" fill="#ffc600" opacity="0.75"/>
  <rect x="510" y="172" width="28" height="20" fill="#7ec4e8" opacity="0.8"/>
  <rect x="430" y="204" width="28" height="20" fill="#ffc600" opacity="0.75"/>
  <rect x="470" y="204" width="28" height="20" fill="#7ec4e8" opacity="0.8"/>
  <rect x="510" y="204" width="28" height="20" fill="#7ec4e8" opacity="0.8"/>
  <rect x="430" y="236" width="28" height="20" fill="#7ec4e8" opacity="0.8"/>
  <rect x="470" y="236" width="28" height="20" fill="#7ec4e8" opacity="0.8"/>
  <rect x="510" y="236" width="28" height="20" fill="#ffc600" opacity="0.75"/>
  <line x1="420" y1="200" x2="570" y2="200" stroke="#ffc600" stroke-width="1" opacity="0.4"/>
  <line x1="420" y1="232" x2="570" y2="232" stroke="#ffc600" stroke-width="1" opacity="0.4"/>

  <!-- Entrance canopy / overhang -->
  <rect x="240" y="258" width="120" height="7" fill="#ffc600"/>
  <rect x="245" y="245" width="4" height="16" fill="#07294d"/>
  <rect x="351" y="245" width="4" height="16" fill="#07294d"/>

  <!-- Entrance doors -->
  <rect x="258" y="230" width="38" height="32" fill="#1a5a8a" opacity="0.8"/>
  <rect x="304" y="230" width="38" height="32" fill="#1a5a8a" opacity="0.8"/>

  <!-- Trees -->
  <rect x="10" y="228" width="9" height="38" fill="#5a3e28"/>
  <circle cx="15" cy="210" r="24" fill="#3d7a33"/>
  <circle cx="7" cy="222" r="16" fill="#4a8f3e"/>

  <rect x="581" y="228" width="9" height="38" fill="#5a3e28"/>
  <circle cx="585" cy="210" r="24" fill="#3d7a33"/>
  <circle cx="593" cy="222" r="16" fill="#4a8f3e"/>

  <!-- Label bar -->
  <rect x="0" y="308" width="600" height="32" fill="rgba(7,41,77,0.82)"/>
  <text x="300" y="329" text-anchor="middle" fill="#ffc600" font-size="14" font-weight="bold" font-family="Arial, sans-serif" letter-spacing="0.5">College of Computing &amp; Informatics · Drexel University</text>
</svg>
